<svg width="28" height="29" viewBox="0 0 28 29" fill="none" xmlns="http://www.w3.org/2000/svg">
<path fill-rule="evenodd" clip-rule="evenodd" d="M23.6818 24.6984C23.6818 24.6984 21.7151 17 14.468 17C7.22084 17 5.25781 24.6984 5.25781 24.6984C5.25781 24.6984 11.014 28.6058 14.5011 28.6058C17.9882 28.6058 23.6818 24.6984 23.6818 24.6984Z" fill="#133A62"/>
<path fill-rule="evenodd" clip-rule="evenodd" d="M14 16C16.2091 16 18 14.2091 18 12C18 9.79086 16.2091 8 14 8C11.7909 8 10 9.79086 10 12C10 14.2091 11.7909 16 14 16Z" fill="#133A62"/>
<path fill-rule="evenodd" clip-rule="evenodd" d="M14 28C21.1797 28 27 22.1797 27 15C27 7.8203 21.1797 2 14 2C6.8203 2 1 7.8203 1 15C1 22.1797 6.8203 28 14 28Z" stroke="#F88440" stroke-width="2"/>
</svg>
